<svg version="1.1" xmlns="http://www.w3.org/2000/svg" xmlns:xlink="http://www.w3.org/1999/xlink" width="937.02294921875" height="914"><defs/><g><g><rect fill="#C0C0C0" stroke="none" x="1063" y="287" width="124.02294921875" height="101" transform="matrix(1 0 0 1 -254 -78)" fill-opacity="0.2"/></g><g><rect fill="#ffffff" stroke="none" x="1056" y="280" width="124.02294921875" height="101" transform="matrix(1 0 0 1 -254 -78)"/></g><g><path fill="none" stroke="#000000" paint-order="fill stroke markers" d=" M 802 202 L 926.02294921875 202 L 926.02294921875 303 L 802 303 L 802 202 Z Z" stroke-miterlimit="10" stroke-dasharray=""/></g><g><path fill="none" stroke="#000000" paint-order="fill stroke markers" d=" M 802 227 L 927.02294921875 227" stroke-miterlimit="10" stroke-dasharray=""/></g><g><path fill="none" stroke="#000000" paint-order="fill stroke markers" d=" M 802 265 L 927.02294921875 265" stroke-miterlimit="10" stroke-dasharray=""/></g><g><g><path fill="none" stroke="none"/><text fill="#000000" stroke="none" font-family="Arial" font-size="13px" font-style="normal" font-weight="bold" text-decoration="undefined" x="1118.511474609375" y="293.5" text-anchor="middle" dominant-baseline="central" transform="matrix(1 0 0 1 -254 -78)">RectangleIterator</text></g></g><g><g><path fill="none" stroke="none"/><text fill="#000000" stroke="none" font-family="Arial" font-size="13px" font-style="normal" font-weight="normal" text-decoration="undefined" x="1061" y="316.5" text-anchor="start" dominant-baseline="central" transform="matrix(1 0 0 1 -254 -78)">+stack</text></g></g><g><g><path fill="none" stroke="none"/><text fill="#000000" stroke="none" font-family="Arial" font-size="13px" font-style="normal" font-weight="normal" text-decoration="undefined" x="1061" y="331.5" text-anchor="start" dominant-baseline="central" transform="matrix(1 0 0 1 -254 -78)">+root</text></g></g><g><g><path fill="none" stroke="none"/><text fill="#000000" stroke="none" font-family="Arial" font-size="13px" font-style="normal" font-weight="normal" text-decoration="undefined" x="1061" y="354.5" text-anchor="start" dominant-baseline="central" transform="matrix(1 0 0 1 -254 -78)">+has_next()</text></g></g><g><g><path fill="none" stroke="none"/><text fill="#000000" stroke="none" font-family="Arial" font-size="13px" font-style="normal" font-weight="normal" text-decoration="undefined" x="1061" y="369.5" text-anchor="start" dominant-baseline="central" transform="matrix(1 0 0 1 -254 -78)">+next()</text></g></g><g><rect fill="#C0C0C0" stroke="none" x="903" y="143" width="116.919921875" height="58" transform="matrix(1 0 0 1 -254 -78)" fill-opacity="0.2"/></g><g><rect fill="#ffffff" stroke="none" x="896" y="136" width="116.919921875" height="58" transform="matrix(1 0 0 1 -254 -78)"/></g><g><path fill="none" stroke="#000000" paint-order="fill stroke markers" d=" M 642 58 L 758.919921875 58 L 758.919921875 116 L 642 116 L 642 58 Z Z" stroke-miterlimit="10" stroke-dasharray=""/></g><g><path fill="none" stroke="#000000" paint-order="fill stroke markers" d=" M 642 83 L 759.919921875 83" stroke-miterlimit="10" stroke-dasharray=""/></g><g><path fill="none" stroke="#000000" paint-order="fill stroke markers" d=" M 642 93 L 759.919921875 93" stroke-miterlimit="10" stroke-dasharray=""/></g><g><g><path fill="none" stroke="none"/><text fill="#000000" stroke="none" font-family="Arial" font-size="13px" font-style="normal" font-weight="bold" text-decoration="undefined" x="954.9599609375" y="149.5" text-anchor="middle" dominant-baseline="central" transform="matrix(1 0 0 1 -254 -78)">TreeIterator</text></g></g><g><g><path fill="none" stroke="none"/><text fill="#000000" stroke="none" font-family="Arial" font-size="13px" font-style="normal" font-weight="normal" text-decoration="undefined" x="901" y="182.5" text-anchor="start" dominant-baseline="central" transform="matrix(1 0 0 1 -254 -78)">+next()</text></g></g><g><rect fill="#C0C0C0" stroke="none" x="919" y="303" width="82.17919921875" height="76" transform="matrix(1 0 0 1 -254 -78)" fill-opacity="0.2"/></g><g><rect fill="#ffffff" stroke="none" x="912" y="296" width="82.17919921875" height="76" transform="matrix(1 0 0 1 -254 -78)"/></g><g><path fill="none" stroke="#000000" paint-order="fill stroke markers" d=" M 658 218 L 740.17919921875 218 L 740.17919921875 294 L 658 294 L 658 218 Z Z" stroke-miterlimit="10" stroke-dasharray=""/></g><g><path fill="none" stroke="#000000" paint-order="fill stroke markers" d=" M 658 256 L 741.17919921875 256" stroke-miterlimit="10" stroke-dasharray=""/></g><g><g><path fill="none" stroke="none"/><text fill="#000000" stroke="none" font-family="Arial" font-size="13px" font-style="normal" font-weight="normal" text-decoration="undefined" x="953.589599609375" y="307.5" text-anchor="middle" dominant-baseline="central" transform="matrix(1 0 0 1 -254 -78)">«interface»</text></g></g><g><g><path fill="none" stroke="none"/><text fill="#000000" stroke="none" font-family="Arial" font-size="13px" font-style="normal" font-weight="bold" text-decoration="undefined" x="953.589599609375" y="322.5" text-anchor="middle" dominant-baseline="central" transform="matrix(1 0 0 1 -254 -78)">Iterator</text></g></g><g><g><path fill="none" stroke="none"/><text fill="#000000" stroke="none" font-family="Arial" font-size="13px" font-style="normal" font-weight="normal" text-decoration="undefined" x="917" y="345.5" text-anchor="start" dominant-baseline="central" transform="matrix(1 0 0 1 -254 -78)">+next()</text></g></g><g><g><path fill="none" stroke="none"/><text fill="#000000" stroke="none" font-family="Arial" font-size="13px" font-style="normal" font-weight="normal" text-decoration="undefined" x="917" y="360.5" text-anchor="start" dominant-baseline="central" transform="matrix(1 0 0 1 -254 -78)">+has_next()</text></g></g><g><rect fill="#C0C0C0" stroke="none" x="767" y="271" width="78.8466796875" height="136" transform="matrix(1 0 0 1 -254 -78)" fill-opacity="0.2"/></g><g><rect fill="#ffffff" stroke="none" x="760" y="264" width="78.8466796875" height="136" transform="matrix(1 0 0 1 -254 -78)"/></g><g><path fill="none" stroke="#000000" paint-order="fill stroke markers" d=" M 506 186 L 584.8466796875 186 L 584.8466796875 322 L 506 322 L 506 186 Z Z" stroke-miterlimit="10" stroke-dasharray=""/></g><g><path fill="none" stroke="#000000" paint-order="fill stroke markers" d=" M 506 224 L 585.8466796875 224" stroke-miterlimit="10" stroke-dasharray=""/></g><g><g><path fill="none" stroke="none"/><text fill="#000000" stroke="none" font-family="Arial" font-size="13px" font-style="normal" font-weight="normal" text-decoration="undefined" x="799.92333984375" y="275.5" text-anchor="middle" dominant-baseline="central" transform="matrix(1 0 0 1 -254 -78)">«interface»</text></g></g><g><g><path fill="none" stroke="none"/><text fill="#000000" stroke="none" font-family="Arial" font-size="13px" font-style="normal" font-weight="bold" text-decoration="undefined" x="799.92333984375" y="290.5" text-anchor="middle" dominant-baseline="central" transform="matrix(1 0 0 1 -254 -78)">Builder</text></g></g><g><g><path fill="none" stroke="none"/><text fill="#000000" stroke="none" font-family="Arial" font-size="13px" font-style="normal" font-weight="normal" text-decoration="undefined" x="765" y="313.5" text-anchor="start" dominant-baseline="central" transform="matrix(1 0 0 1 -254 -78)">+build()</text></g></g><g><rect fill="#C0C0C0" stroke="none" x="751" y="95" width="121.03955078125" height="116" transform="matrix(1 0 0 1 -254 -78)" fill-opacity="0.2"/></g><g><rect fill="#ffffff" stroke="none" x="744" y="88" width="121.03955078125" height="116" transform="matrix(1 0 0 1 -254 -78)"/></g><g><path fill="none" stroke="#000000" paint-order="fill stroke markers" d=" M 490 10 L 611.03955078125 10 L 611.03955078125 126 L 490 126 L 490 10 Z Z" stroke-miterlimit="10" stroke-dasharray=""/></g><g><path fill="none" stroke="#000000" paint-order="fill stroke markers" d=" M 490 35 L 612.03955078125 35" stroke-miterlimit="10" stroke-dasharray=""/></g><g><path fill="none" stroke="#000000" paint-order="fill stroke markers" d=" M 490 73 L 612.03955078125 73" stroke-miterlimit="10" stroke-dasharray=""/></g><g><g><path fill="none" stroke="none"/><text fill="#000000" stroke="none" font-family="Arial" font-size="13px" font-style="normal" font-weight="bold" text-decoration="undefined" x="805.019775390625" y="101.5" text-anchor="middle" dominant-baseline="central" transform="matrix(1 0 0 1 -254 -78)">TreeBuilder</text></g></g><g><g><path fill="none" stroke="none"/><text fill="#000000" stroke="none" font-family="Arial" font-size="13px" font-style="normal" font-weight="normal" text-decoration="undefined" x="749" y="124.5" text-anchor="start" dominant-baseline="central" transform="matrix(1 0 0 1 -254 -78)">+icon_factory</text></g></g><g><g><path fill="none" stroke="none"/><text fill="#000000" stroke="none" font-family="Arial" font-size="13px" font-style="normal" font-weight="normal" text-decoration="undefined" x="749" y="139.5" text-anchor="start" dominant-baseline="central" transform="matrix(1 0 0 1 -254 -78)">+root</text></g></g><g><g><path fill="none" stroke="none"/><text fill="#000000" stroke="none" font-family="Arial" font-size="13px" font-style="normal" font-weight="normal" text-decoration="undefined" x="749" y="162.5" text-anchor="start" dominant-baseline="central" transform="matrix(1 0 0 1 -254 -78)">+build()</text></g></g><g><g><path fill="none" stroke="none"/><text fill="#000000" stroke="none" font-family="Arial" font-size="13px" font-style="normal" font-weight="normal" text-decoration="undefined" x="749" y="177.5" text-anchor="start" dominant-baseline="central" transform="matrix(1 0 0 1 -254 -78)">+build_recursive()</text></g></g><g><g><path fill="none" stroke="none"/><text fill="#000000" stroke="none" font-family="Arial" font-size="13px" font-style="normal" font-weight="normal" text-decoration="undefined" x="749" y="192.5" text-anchor="start" dominant-baseline="central" transform="matrix(1 0 0 1 -254 -78)">+show()</text></g></g><g><rect fill="#C0C0C0" stroke="none" x="743" y="463" width="121.09033203125" height="58" transform="matrix(1 0 0 1 -254 -78)" fill-opacity="0.2"/></g><g><rect fill="#ffffff" stroke="none" x="736" y="456" width="121.09033203125" height="58" transform="matrix(1 0 0 1 -254 -78)"/></g><g><path fill="none" stroke="#000000" paint-order="fill stroke markers" d=" M 482 378 L 603.09033203125 378 L 603.09033203125 436 L 482 436 L 482 378 Z Z" stroke-miterlimit="10" stroke-dasharray=""/></g><g><path fill="none" stroke="#000000" paint-order="fill stroke markers" d=" M 482 403 L 604.09033203125 403" stroke-miterlimit="10" stroke-dasharray=""/></g><g><path fill="none" stroke="#000000" paint-order="fill stroke markers" d=" M 482 413 L 604.09033203125 413" stroke-miterlimit="10" stroke-dasharray=""/></g><g><g><path fill="none" stroke="none"/><text fill="#000000" stroke="none" font-family="Arial" font-size="13px" font-style="normal" font-weight="bold" text-decoration="undefined" x="797.045166015625" y="469.5" text-anchor="middle" dominant-baseline="central" transform="matrix(1 0 0 1 -254 -78)">RectangleBuilder</text></g></g><g><g><path fill="none" stroke="none"/><text fill="#000000" stroke="none" font-family="Arial" font-size="13px" font-style="normal" font-weight="normal" text-decoration="undefined" x="741" y="502.5" text-anchor="start" dominant-baseline="central" transform="matrix(1 0 0 1 -254 -78)">+show()</text></g></g><g><rect fill="#C0C0C0" stroke="none" x="703" y="735" width="175.69921875" height="76" transform="matrix(1 0 0 1 -254 -78)" fill-opacity="0.2"/></g><g><rect fill="#ffffff" stroke="none" x="696" y="728" width="175.69921875" height="76" transform="matrix(1 0 0 1 -254 -78)"/></g><g><path fill="none" stroke="#000000" paint-order="fill stroke markers" d=" M 442 650 L 617.69921875 650 L 617.69921875 726 L 442 726 L 442 650 Z Z" stroke-miterlimit="10" stroke-dasharray=""/></g><g><path fill="none" stroke="#000000" paint-order="fill stroke markers" d=" M 442 688 L 618.69921875 688" stroke-miterlimit="10" stroke-dasharray=""/></g><g><g><path fill="none" stroke="none"/><text fill="#000000" stroke="none" font-family="Arial" font-size="13px" font-style="normal" font-weight="normal" text-decoration="undefined" x="784.349609375" y="739.5" text-anchor="middle" dominant-baseline="central" transform="matrix(1 0 0 1 -254 -78)">«interface»</text></g></g><g><g><path fill="none" stroke="none"/><text fill="#000000" stroke="none" font-family="Arial" font-size="13px" font-style="normal" font-weight="bold" text-decoration="undefined" x="784.349609375" y="754.5" text-anchor="middle" dominant-baseline="central" transform="matrix(1 0 0 1 -254 -78)">Visitor</text></g></g><g><g><path fill="none" stroke="none"/><text fill="#000000" stroke="none" font-family="Arial" font-size="13px" font-style="normal" font-weight="normal" text-decoration="undefined" x="701" y="777.5" text-anchor="start" dominant-baseline="central" transform="matrix(1 0 0 1 -254 -78)">+visit_intermediate_node()</text></g></g><g><g><path fill="none" stroke="none"/><text fill="#000000" stroke="none" font-family="Arial" font-size="13px" font-style="normal" font-weight="normal" text-decoration="undefined" x="701" y="792.5" text-anchor="start" dominant-baseline="central" transform="matrix(1 0 0 1 -254 -78)">+visit_leaf_node()</text></g></g><g><rect fill="#C0C0C0" stroke="none" x="703" y="567" width="175.69921875" height="73" transform="matrix(1 0 0 1 -254 -78)" fill-opacity="0.2"/></g><g><rect fill="#ffffff" stroke="none" x="696" y="560" width="175.69921875" height="73" transform="matrix(1 0 0 1 -254 -78)"/></g><g><path fill="none" stroke="#000000" paint-order="fill stroke markers" d=" M 442 482 L 617.69921875 482 L 617.69921875 555 L 442 555 L 442 482 Z Z" stroke-miterlimit="10" stroke-dasharray=""/></g><g><path fill="none" stroke="#000000" paint-order="fill stroke markers" d=" M 442 507 L 618.69921875 507" stroke-miterlimit="10" stroke-dasharray=""/></g><g><path fill="none" stroke="#000000" paint-order="fill stroke markers" d=" M 442 517 L 618.69921875 517" stroke-miterlimit="10" stroke-dasharray=""/></g><g><g><path fill="none" stroke="none"/><text fill="#000000" stroke="none" font-family="Arial" font-size="13px" font-style="normal" font-weight="bold" text-decoration="undefined" x="784.349609375" y="573.5" text-anchor="middle" dominant-baseline="central" transform="matrix(1 0 0 1 -254 -78)">TreeVisitor</text></g></g><g><g><path fill="none" stroke="none"/><text fill="#000000" stroke="none" font-family="Arial" font-size="13px" font-style="normal" font-weight="normal" text-decoration="undefined" x="701" y="606.5" text-anchor="start" dominant-baseline="central" transform="matrix(1 0 0 1 -254 -78)">+visit_intermediate_node()</text></g></g><g><g><path fill="none" stroke="none"/><text fill="#000000" stroke="none" font-family="Arial" font-size="13px" font-style="normal" font-weight="normal" text-decoration="undefined" x="701" y="621.5" text-anchor="start" dominant-baseline="central" transform="matrix(1 0 0 1 -254 -78)">+visit_leaf_node()</text></g></g><g><rect fill="#C0C0C0" stroke="none" x="703" y="903" width="175.69921875" height="86" transform="matrix(1 0 0 1 -254 -78)" fill-opacity="0.2"/></g><g><rect fill="#ffffff" stroke="none" x="696" y="896" width="175.69921875" height="86" transform="matrix(1 0 0 1 -254 -78)"/></g><g><path fill="none" stroke="#000000" paint-order="fill stroke markers" d=" M 442 818 L 617.69921875 818 L 617.69921875 904 L 442 904 L 442 818 Z Z" stroke-miterlimit="10" stroke-dasharray=""/></g><g><path fill="none" stroke="#000000" paint-order="fill stroke markers" d=" M 442 843 L 618.69921875 843" stroke-miterlimit="10" stroke-dasharray=""/></g><g><path fill="none" stroke="#000000" paint-order="fill stroke markers" d=" M 442 866 L 618.69921875 866" stroke-miterlimit="10" stroke-dasharray=""/></g><g><g><path fill="none" stroke="none"/><text fill="#000000" stroke="none" font-family="Arial" font-size="13px" font-style="normal" font-weight="bold" text-decoration="undefined" x="784.349609375" y="909.5" text-anchor="middle" dominant-baseline="central" transform="matrix(1 0 0 1 -254 -78)">RectangleVisitor</text></g></g><g><g><path fill="none" stroke="none"/><text fill="#000000" stroke="none" font-family="Arial" font-size="13px" font-style="normal" font-weight="normal" text-decoration="undefined" x="701" y="932.5" text-anchor="start" dominant-baseline="central" transform="matrix(1 0 0 1 -254 -78)">+max_width</text></g></g><g><g><path fill="none" stroke="none"/><text fill="#000000" stroke="none" font-family="Arial" font-size="13px" font-style="normal" font-weight="normal" text-decoration="undefined" x="701" y="955.5" text-anchor="start" dominant-baseline="central" transform="matrix(1 0 0 1 -254 -78)">+visit_intermediate_node()</text></g></g><g><g><path fill="none" stroke="none"/><text fill="#000000" stroke="none" font-family="Arial" font-size="13px" font-style="normal" font-weight="normal" text-decoration="undefined" x="701" y="970.5" text-anchor="start" dominant-baseline="central" transform="matrix(1 0 0 1 -254 -78)">+visit_leaf_node()</text></g></g><g><rect fill="#C0C0C0" stroke="none" x="527" y="303" width="189.0673828125" height="76" transform="matrix(1 0 0 1 -254 -78)" fill-opacity="0.2"/></g><g><rect fill="#ffffff" stroke="none" x="520" y="296" width="189.0673828125" height="76" transform="matrix(1 0 0 1 -254 -78)"/></g><g><path fill="none" stroke="#000000" paint-order="fill stroke markers" d=" M 266 218 L 455.0673828125 218 L 455.0673828125 294 L 266 294 L 266 218 Z Z" stroke-miterlimit="10" stroke-dasharray=""/></g><g><path fill="none" stroke="#000000" paint-order="fill stroke markers" d=" M 266 256 L 456.0673828125 256" stroke-miterlimit="10" stroke-dasharray=""/></g><g><g><path fill="none" stroke="none"/><text fill="#000000" stroke="none" font-family="Arial" font-size="13px" font-style="normal" font-weight="normal" text-decoration="undefined" x="615.03369140625" y="307.5" text-anchor="middle" dominant-baseline="central" transform="matrix(1 0 0 1 -254 -78)">«interface»</text></g></g><g><g><path fill="none" stroke="none"/><text fill="#000000" stroke="none" font-family="Arial" font-size="13px" font-style="normal" font-weight="bold" text-decoration="undefined" x="615.03369140625" y="322.5" text-anchor="middle" dominant-baseline="central" transform="matrix(1 0 0 1 -254 -78)">IconFactory</text></g></g><g><g><path fill="none" stroke="none"/><text fill="#000000" stroke="none" font-family="Arial" font-size="13px" font-style="normal" font-weight="normal" text-decoration="undefined" x="525" y="345.5" text-anchor="start" dominant-baseline="central" transform="matrix(1 0 0 1 -254 -78)">+create_intermediate_node()</text></g></g><g><g><path fill="none" stroke="none"/><text fill="#000000" stroke="none" font-family="Arial" font-size="13px" font-style="normal" font-weight="normal" text-decoration="undefined" x="525" y="360.5" text-anchor="start" dominant-baseline="central" transform="matrix(1 0 0 1 -254 -78)">+create_leaf_node()</text></g></g><g><rect fill="#C0C0C0" stroke="none" x="279" y="295" width="189.0673828125" height="73" transform="matrix(1 0 0 1 -254 -78)" fill-opacity="0.2"/></g><g><rect fill="#ffffff" stroke="none" x="272" y="288" width="189.0673828125" height="73" transform="matrix(1 0 0 1 -254 -78)"/></g><g><path fill="none" stroke="#000000" paint-order="fill stroke markers" d=" M 18 210 L 207.0673828125 210 L 207.0673828125 283 L 18 283 L 18 210 Z Z" stroke-miterlimit="10" stroke-dasharray=""/></g><g><path fill="none" stroke="#000000" paint-order="fill stroke markers" d=" M 18 235 L 208.0673828125 235" stroke-miterlimit="10" stroke-dasharray=""/></g><g><path fill="none" stroke="#000000" paint-order="fill stroke markers" d=" M 18 245 L 208.0673828125 245" stroke-miterlimit="10" stroke-dasharray=""/></g><g><g><path fill="none" stroke="none"/><text fill="#000000" stroke="none" font-family="Arial" font-size="13px" font-style="normal" font-weight="bold" text-decoration="undefined" x="367.03369140625" y="301.5" text-anchor="middle" dominant-baseline="central" transform="matrix(1 0 0 1 -254 -78)">PokerFaceFactory</text></g></g><g><g><path fill="none" stroke="none"/><text fill="#000000" stroke="none" font-family="Arial" font-size="13px" font-style="normal" font-weight="normal" text-decoration="undefined" x="277" y="334.5" text-anchor="start" dominant-baseline="central" transform="matrix(1 0 0 1 -254 -78)">+create_intermediate_node()</text></g></g><g><g><path fill="none" stroke="none"/><text fill="#000000" stroke="none" font-family="Arial" font-size="13px" font-style="normal" font-weight="normal" text-decoration="undefined" x="277" y="349.5" text-anchor="start" dominant-baseline="central" transform="matrix(1 0 0 1 -254 -78)">+create_leaf_node()</text></g></g><g><rect fill="#C0C0C0" stroke="none" x="527" y="119" width="189.0673828125" height="73" transform="matrix(1 0 0 1 -254 -78)" fill-opacity="0.2"/></g><g><rect fill="#ffffff" stroke="none" x="520" y="112" width="189.0673828125" height="73" transform="matrix(1 0 0 1 -254 -78)"/></g><g><path fill="none" stroke="#000000" paint-order="fill stroke markers" d=" M 266 34 L 455.0673828125 34 L 455.0673828125 107 L 266 107 L 266 34 Z Z" stroke-miterlimit="10" stroke-dasharray=""/></g><g><path fill="none" stroke="#000000" paint-order="fill stroke markers" d=" M 266 59 L 456.0673828125 59" stroke-miterlimit="10" stroke-dasharray=""/></g><g><path fill="none" stroke="#000000" paint-order="fill stroke markers" d=" M 266 69 L 456.0673828125 69" stroke-miterlimit="10" stroke-dasharray=""/></g><g><g><path fill="none" stroke="none"/><text fill="#000000" stroke="none" font-family="Arial" font-size="13px" font-style="normal" font-weight="bold" text-decoration="undefined" x="615.03369140625" y="125.5" text-anchor="middle" dominant-baseline="central" transform="matrix(1 0 0 1 -254 -78)">PokerFaceFactory</text></g></g><g><g><path fill="none" stroke="none"/><text fill="#000000" stroke="none" font-family="Arial" font-size="13px" font-style="normal" font-weight="normal" text-decoration="undefined" x="525" y="158.5" text-anchor="start" dominant-baseline="central" transform="matrix(1 0 0 1 -254 -78)">+create_intermediate_node()</text></g></g><g><g><path fill="none" stroke="none"/><text fill="#000000" stroke="none" font-family="Arial" font-size="13px" font-style="normal" font-weight="normal" text-decoration="undefined" x="525" y="173.5" text-anchor="start" dominant-baseline="central" transform="matrix(1 0 0 1 -254 -78)">+create_leaf_node()</text></g></g><g><rect fill="#C0C0C0" stroke="none" x="287" y="727" width="78.8466796875" height="99" transform="matrix(1 0 0 1 -254 -78)" fill-opacity="0.2"/></g><g><rect fill="#ffffff" stroke="none" x="280" y="720" width="78.8466796875" height="99" transform="matrix(1 0 0 1 -254 -78)"/></g><g><path fill="none" stroke="#000000" paint-order="fill stroke markers" d=" M 26 642 L 104.8466796875 642 L 104.8466796875 741 L 26 741 L 26 642 Z Z" stroke-miterlimit="10" stroke-dasharray=""/></g><g><path fill="none" stroke="#000000" paint-order="fill stroke markers" d=" M 26 680 L 105.8466796875 680" stroke-miterlimit="10" stroke-dasharray=""/></g><g><path fill="none" stroke="#000000" paint-order="fill stroke markers" d=" M 26 718 L 105.8466796875 718" stroke-miterlimit="10" stroke-dasharray=""/></g><g><g><path fill="none" stroke="none"/><text fill="#000000" stroke="none" font-family="Arial" font-size="13px" font-style="normal" font-weight="normal" text-decoration="undefined" x="319.92333984375" y="731.5" text-anchor="middle" dominant-baseline="central" transform="matrix(1 0 0 1 -254 -78)">«interface»</text></g></g><g><g><path fill="none" stroke="none"/><text fill="#000000" stroke="none" font-family="Arial" font-size="13px" font-style="normal" font-weight="bold" text-decoration="undefined" x="319.92333984375" y="746.5" text-anchor="middle" dominant-baseline="central" transform="matrix(1 0 0 1 -254 -78)">Node</text></g></g><g><g><path fill="none" stroke="none"/><text fill="#000000" stroke="none" font-family="Arial" font-size="13px" font-style="normal" font-weight="normal" text-decoration="undefined" x="285" y="769.5" text-anchor="start" dominant-baseline="central" transform="matrix(1 0 0 1 -254 -78)">+icon</text></g></g><g><g><path fill="none" stroke="none"/><text fill="#000000" stroke="none" font-family="Arial" font-size="13px" font-style="normal" font-weight="normal" text-decoration="undefined" x="285" y="784.5" text-anchor="start" dominant-baseline="central" transform="matrix(1 0 0 1 -254 -78)">+name</text></g></g><g><g><path fill="none" stroke="none"/><text fill="#000000" stroke="none" font-family="Arial" font-size="13px" font-style="normal" font-weight="normal" text-decoration="undefined" x="285" y="807.5" text-anchor="start" dominant-baseline="central" transform="matrix(1 0 0 1 -254 -78)">+show()</text></g></g><g><rect fill="#C0C0C0" stroke="none" x="271" y="551" width="130.2119140625" height="86" transform="matrix(1 0 0 1 -254 -78)" fill-opacity="0.2"/></g><g><rect fill="#ffffff" stroke="none" x="264" y="544" width="130.2119140625" height="86" transform="matrix(1 0 0 1 -254 -78)"/></g><g><path fill="none" stroke="#000000" paint-order="fill stroke markers" d=" M 10 466 L 140.2119140625 466 L 140.2119140625 552 L 10 552 L 10 466 Z Z" stroke-miterlimit="10" stroke-dasharray=""/></g><g><path fill="none" stroke="#000000" paint-order="fill stroke markers" d=" M 10 491 L 141.2119140625 491" stroke-miterlimit="10" stroke-dasharray=""/></g><g><path fill="none" stroke="#000000" paint-order="fill stroke markers" d=" M 10 514 L 141.2119140625 514" stroke-miterlimit="10" stroke-dasharray=""/></g><g><g><path fill="none" stroke="none"/><text fill="#000000" stroke="none" font-family="Arial" font-size="13px" font-style="normal" font-weight="bold" text-decoration="undefined" x="329.60595703125" y="557.5" text-anchor="middle" dominant-baseline="central" transform="matrix(1 0 0 1 -254 -78)">IntermediateNode</text></g></g><g><g><path fill="none" stroke="none"/><text fill="#000000" stroke="none" font-family="Arial" font-size="13px" font-style="normal" font-weight="normal" text-decoration="undefined" x="269" y="580.5" text-anchor="start" dominant-baseline="central" transform="matrix(1 0 0 1 -254 -78)">+children</text></g></g><g><g><path fill="none" stroke="none"/><text fill="#000000" stroke="none" font-family="Arial" font-size="13px" font-style="normal" font-weight="normal" text-decoration="undefined" x="269" y="603.5" text-anchor="start" dominant-baseline="central" transform="matrix(1 0 0 1 -254 -78)">+add_children()</text></g></g><g><g><path fill="none" stroke="none"/><text fill="#000000" stroke="none" font-family="Arial" font-size="13px" font-style="normal" font-weight="normal" text-decoration="undefined" x="269" y="618.5" text-anchor="start" dominant-baseline="central" transform="matrix(1 0 0 1 -254 -78)">+show()</text></g></g><g><rect fill="#C0C0C0" stroke="none" x="279" y="903" width="90.57080078125" height="58" transform="matrix(1 0 0 1 -254 -78)" fill-opacity="0.2"/></g><g><rect fill="#ffffff" stroke="none" x="272" y="896" width="90.57080078125" height="58" transform="matrix(1 0 0 1 -254 -78)"/></g><g><path fill="none" stroke="#000000" paint-order="fill stroke markers" d=" M 18 818 L 108.57080078125 818 L 108.57080078125 876 L 18 876 L 18 818 Z Z" stroke-miterlimit="10" stroke-dasharray=""/></g><g><path fill="none" stroke="#000000" paint-order="fill stroke markers" d=" M 18 843 L 109.57080078125 843" stroke-miterlimit="10" stroke-dasharray=""/></g><g><path fill="none" stroke="#000000" paint-order="fill stroke markers" d=" M 18 853 L 109.57080078125 853" stroke-miterlimit="10" stroke-dasharray=""/></g><g><g><path fill="none" stroke="none"/><text fill="#000000" stroke="none" font-family="Arial" font-size="13px" font-style="normal" font-weight="bold" text-decoration="undefined" x="317.785400390625" y="909.5" text-anchor="middle" dominant-baseline="central" transform="matrix(1 0 0 1 -254 -78)">LeafNode</text></g></g><g><g><path fill="none" stroke="none"/><text fill="#000000" stroke="none" font-family="Arial" font-size="13px" font-style="normal" font-weight="normal" text-decoration="undefined" x="277" y="942.5" text-anchor="start" dominant-baseline="central" transform="matrix(1 0 0 1 -254 -78)">+show()</text></g></g><g><path fill="none" stroke="#000000" paint-order="fill stroke markers" d=" M 548 127 L 547 185" stroke-miterlimit="10" stroke-dasharray="3"/></g><g><path fill="#FFFFFF" stroke="none" paint-order="stroke fill markers" d=" M 538.9326005413237 164.5325364059405 L 547 185 L 555.7681694372776 164.8228048351811"/></g><g><path fill="none" stroke="#000000" paint-order="fill stroke markers" d=" M 538.9326005413237 164.5325364059405 L 547 185 L 555.7681694372776 164.8228048351811 L 538.9326005413237 164.5325364059405" stroke-miterlimit="10" stroke-dasharray=""/></g><g><path fill="none" stroke="#000000" paint-order="fill stroke markers" d=" M 543 377 L 544 323" stroke-miterlimit="10" stroke-dasharray="3"/></g><g><path fill="#FFFFFF" stroke="none" paint-order="stroke fill markers" d=" M 552.0412614480051 343.4777468078113 L 544 323 L 535.2060768679538 343.16598413040293"/></g><g><path fill="none" stroke="#000000" paint-order="fill stroke markers" d=" M 552.0412614480051 343.4777468078113 L 544 323 L 535.2060768679538 343.16598413040293 L 552.0412614480051 343.4777468078113" stroke-miterlimit="10" stroke-dasharray=""/></g><g><path fill="none" stroke="#000000" paint-order="fill stroke markers" d=" M 505 254 L 456 255" stroke-miterlimit="10" stroke-dasharray="3"/></g><g><path fill="none" stroke="#000000" paint-order="fill stroke markers" d=" M 466.07466853529263 250.5840002373207 L 456 255 L 466.24644981742085 259.0012830616035" stroke-miterlimit="10" stroke-dasharray=""/></g><g><path fill="none" stroke="#000000" paint-order="fill stroke markers" d=" M 360 108 L 360 217" stroke-miterlimit="10" stroke-dasharray="3"/></g><g><path fill="#FFFFFF" stroke="none" paint-order="stroke fill markers" d=" M 351.580964487968 196.6746502847517 L 360 217 L 368.419035512032 196.6746502847517"/></g><g><path fill="none" stroke="#000000" paint-order="fill stroke markers" d=" M 351.580964487968 196.6746502847517 L 360 217 L 368.419035512032 196.6746502847517 L 351.580964487968 196.6746502847517" stroke-miterlimit="10" stroke-dasharray=""/></g><g><path fill="none" stroke="#000000" paint-order="fill stroke markers" d=" M 208 250 L 265 252" stroke-miterlimit="10" stroke-dasharray="3"/></g><g><path fill="#FFFFFF" stroke="none" paint-order="stroke fill markers" d=" M 244.3919274219611 259.7011261915567 L 265 252 L 244.98237358006105 242.87341068570726"/></g><g><path fill="none" stroke="#000000" paint-order="fill stroke markers" d=" M 244.3919274219611 259.7011261915567 L 265 252 L 244.98237358006105 242.87341068570726 L 244.3919274219611 259.7011261915567" stroke-miterlimit="10" stroke-dasharray=""/></g><g><path fill="none" stroke="#000000" paint-order="fill stroke markers" d=" M 73 553 L 68 641" stroke-miterlimit="10" stroke-dasharray="3"/></g><g><path fill="#FFFFFF" stroke="none" paint-order="stroke fill markers" d=" M 60.747511096626795 620.2297952656588 L 68 641 L 77.55846853023019 621.1849633016591"/></g><g><path fill="none" stroke="#000000" paint-order="fill stroke markers" d=" M 60.747511096626795 620.2297952656588 L 68 641 L 77.55846853023019 621.1849633016591 L 60.747511096626795 620.2297952656588" stroke-miterlimit="10" stroke-dasharray=""/></g><g><path fill="none" stroke="#000000" paint-order="fill stroke markers" d=" M 63 817 L 64 742" stroke-miterlimit="10" stroke-dasharray="3"/></g><g><path fill="#FFFFFF" stroke="none" paint-order="stroke fill markers" d=" M 72.14730667630812 762.4357870883944 L 64 742 L 55.31073217013579 762.211299428312"/></g><g><path fill="none" stroke="#000000" paint-order="fill stroke markers" d=" M 72.14730667630812 762.4357870883944 L 64 742 L 55.31073217013579 762.211299428312 L 72.14730667630812 762.4357870883944" stroke-miterlimit="10" stroke-dasharray=""/></g><g><path fill="none" stroke="#000000" paint-order="fill stroke markers" d=" M 529 556 L 529 649" stroke-miterlimit="10" stroke-dasharray="3"/></g><g><path fill="#FFFFFF" stroke="none" paint-order="stroke fill markers" d=" M 520.580964487968 628.6746502847517 L 529 649 L 537.419035512032 628.6746502847517"/></g><g><path fill="none" stroke="#000000" paint-order="fill stroke markers" d=" M 520.580964487968 628.6746502847517 L 529 649 L 537.419035512032 628.6746502847517 L 520.580964487968 628.6746502847517" stroke-miterlimit="10" stroke-dasharray=""/></g><g><path fill="none" stroke="#000000" paint-order="fill stroke markers" d=" M 529 817 L 529 727" stroke-miterlimit="10" stroke-dasharray="3"/></g><g><path fill="#FFFFFF" stroke="none" paint-order="stroke fill markers" d=" M 537.419035512032 747.3253497152483 L 529 727 L 520.580964487968 747.3253497152483"/></g><g><path fill="none" stroke="#000000" paint-order="fill stroke markers" d=" M 537.419035512032 747.3253497152483 L 529 727 L 520.580964487968 747.3253497152483 L 537.419035512032 747.3253497152483" stroke-miterlimit="10" stroke-dasharray=""/></g><g><path fill="none" stroke="#000000" paint-order="fill stroke markers" d=" M 586 255 L 657 255" stroke-miterlimit="10" stroke-dasharray="3"/></g><g><path fill="none" stroke="#000000" paint-order="fill stroke markers" d=" M 646.8373251423759 259.209517756016 L 657 255 L 646.8373251423758 250.790482243984" stroke-miterlimit="10" stroke-dasharray=""/></g><g><path fill="none" stroke="#000000" paint-order="fill stroke markers" d=" M 700 117 L 699 217" stroke-miterlimit="10" stroke-dasharray="3"/></g><g><path fill="#FFFFFF" stroke="none" paint-order="stroke fill markers" d=" M 690.7846287434146 196.59148033010547 L 699 217 L 707.6218579270649 196.759852621942"/></g><g><path fill="none" stroke="#000000" paint-order="fill stroke markers" d=" M 690.7846287434146 196.59148033010547 L 699 217 L 707.6218579270649 196.759852621942 L 690.7846287434146 196.59148033010547" stroke-miterlimit="10" stroke-dasharray=""/></g><g><path fill="none" stroke="#000000" paint-order="fill stroke markers" d=" M 801 254 L 741 255" stroke-miterlimit="10" stroke-dasharray="3"/></g><g><path fill="#FFFFFF" stroke="none" paint-order="stroke fill markers" d=" M 761.1822295639068 246.24342476593932 L 741 255 L 761.4628251120766 263.0791576561276"/></g><g><path fill="none" stroke="#000000" paint-order="fill stroke markers" d=" M 761.1822295639068 246.24342476593932 L 741 255 L 761.4628251120766 263.0791576561276 L 761.1822295639068 246.24342476593932" stroke-miterlimit="10" stroke-dasharray=""/></g><g><path fill="none" stroke="#000000" paint-order="fill stroke markers" d=" M 328 294 L 328 683 L 328 683 A 8 8 0 0 1 320 691 L 105 691" stroke-miterlimit="10" stroke-dasharray="3"/></g><g><path fill="none" stroke="#000000" paint-order="fill stroke markers" d=" M 115.16267485762415 686.790482243984 L 105 691 L 115.16267485762415 695.209517756016" stroke-miterlimit="10" stroke-dasharray=""/></g><g><path fill="none" stroke="#000000" paint-order="fill stroke markers" d=" M 684 294 L 684 680 L 684 680 A 8 8 0 0 1 676 688 L 618 688" stroke-miterlimit="10" stroke-dasharray="3"/></g><g><path fill="none" stroke="#000000" paint-order="fill stroke markers" d=" M 628.1626748576241 683.790482243984 L 618 688 L 628.1626748576241 692.209517756016" stroke-miterlimit="10" stroke-dasharray=""/></g><g><path fill="none" stroke="#000000" paint-order="fill stroke markers" d=" M 441 689 L 106 691" stroke-miterlimit="10" stroke-dasharray="3"/></g><g><path fill="none" stroke="#000000" paint-order="fill stroke markers" d=" M 116.13736274854534 686.7298856567528 L 106 691 L 116.1876247513963 695.1487711342922" stroke-miterlimit="10" stroke-dasharray=""/></g></g></svg>